<svg width="45" height="45" viewBox="0 0 45 45" fill="none" xmlns="http://www.w3.org/2000/svg">
<path fill-rule="evenodd" clip-rule="evenodd" d="M25.5544 38.385L24.5381 40.1025C23.6325 41.6325 21.3694 41.6325 20.4619 40.1025L19.4456 38.385C18.6581 37.0537 18.2644 36.3862 17.6306 36.0187C16.9969 35.6494 16.2 35.6362 14.6062 35.6081C12.2513 35.5687 10.7756 35.4244 9.53813 34.9106C8.40069 34.4395 7.36719 33.7489 6.49663 32.8784C5.62607 32.0078 4.93551 30.9743 4.46438 29.8369C3.75 28.1156 3.75 25.9312 3.75 21.5625V19.6875C3.75 13.5506 3.75 10.4813 5.13188 8.2275C5.90445 6.966 6.96459 5.90522 8.22563 5.13188C10.4813 3.75 13.5525 3.75 19.6875 3.75H25.3125C31.4494 3.75 34.5188 3.75 36.7744 5.13188C38.0352 5.90469 39.0953 6.9648 39.8681 8.22563C41.25 10.4813 41.25 13.5525 41.25 19.6875V21.5625C41.25 25.9312 41.25 28.1156 40.5375 29.8369C40.0661 30.9745 39.3753 32.0081 38.5044 32.8787C37.6335 33.7492 36.5997 34.4397 35.4619 34.9106C34.2244 35.4244 32.7487 35.5669 30.3937 35.6081C28.8 35.6362 28.0031 35.6494 27.3694 36.0187C26.7356 36.3862 26.3419 37.0519 25.5544 38.385ZM15 22.0312C14.627 22.0312 14.2694 22.1794 14.0056 22.4431C13.7419 22.7069 13.5938 23.0645 13.5938 23.4375C13.5938 23.8105 13.7419 24.1681 14.0056 24.4319C14.2694 24.6956 14.627 24.8438 15 24.8438H25.3125C25.6855 24.8438 26.0431 24.6956 26.3069 24.4319C26.5706 24.1681 26.7188 23.8105 26.7188 23.4375C26.7188 23.0645 26.5706 22.7069 26.3069 22.4431C26.0431 22.1794 25.6855 22.0312 25.3125 22.0312H15ZM13.5938 16.875C13.5938 16.502 13.7419 16.1444 14.0056 15.8806C14.2694 15.6169 14.627 15.4688 15 15.4688H30C30.373 15.4688 30.7306 15.6169 30.9944 15.8806C31.2581 16.1444 31.4062 16.502 31.4062 16.875C31.4062 17.248 31.2581 17.6056 30.9944 17.8694C30.7306 18.1331 30.373 18.2812 30 18.2812H15C14.627 18.2812 14.2694 18.1331 14.0056 17.8694C13.7419 17.6056 13.5938 17.248 13.5938 16.875Z" fill="#7868E6"/>
</svg>
