<svg width="45" height="45" viewBox="0 0 45 45" fill="none" xmlns="http://www.w3.org/2000/svg">
<path fill-rule="evenodd" clip-rule="evenodd" d="M4.37813 14.7656C3.36563 16.8787 3.72188 19.3519 4.43438 24.2962L4.95563 27.9281C5.86875 34.2806 6.32625 37.455 8.52938 39.3525C10.7325 41.25 13.9631 41.25 20.4263 41.25H24.5738C31.0369 41.25 34.2675 41.25 36.4706 39.3525C38.6738 37.455 39.1313 34.2806 40.0444 27.9281L40.5675 24.2962C41.28 19.3519 41.6363 16.8787 40.6219 14.7656C39.6094 12.6525 37.4513 11.3663 33.1369 8.7975L30.54 7.25063C26.625 4.91625 24.6638 3.75 22.5 3.75C20.3363 3.75 18.3769 4.91625 14.46 7.25063L11.8631 8.7975C7.55063 11.3663 5.3925 12.6525 4.37813 14.7656ZM15.4688 33.75C15.4688 33.377 15.6169 33.0194 15.8806 32.7556C16.1444 32.4919 16.502 32.3438 16.875 32.3438H28.125C28.498 32.3438 28.8556 32.4919 29.1194 32.7556C29.3831 33.0194 29.5313 33.377 29.5313 33.75C29.5313 34.123 29.3831 34.4806 29.1194 34.7444C28.8556 35.0081 28.498 35.1562 28.125 35.1562H16.875C16.502 35.1562 16.1444 35.0081 15.8806 34.7444C15.6169 34.4806 15.4688 34.123 15.4688 33.75Z" fill="#7868E6"/>
</svg>
