<svg width="45" height="45" viewBox="0 0 45 45" fill="none" xmlns="http://www.w3.org/2000/svg">
<path d="M25.395 19.6051C23.8592 18.0699 21.7765 17.2075 19.605 17.2075C17.4335 17.2075 15.3508 18.0699 13.815 19.6051L8.02314 25.3951C6.48728 26.931 5.62445 29.014 5.62445 31.186C5.62445 33.3581 6.48728 35.4411 8.02314 36.977C9.55899 38.5128 11.642 39.3757 13.8141 39.3757C15.9861 39.3757 18.0692 38.5128 19.605 36.977L22.5 34.082" stroke="#7868E6" stroke-width="5" stroke-linecap="round" stroke-linejoin="round"/>
<path d="M19.605 25.3951C21.1408 26.9303 23.2235 27.7927 25.395 27.7927C27.5665 27.7927 29.6492 26.9303 31.185 25.3951L36.9769 19.6051C38.5127 18.0692 39.3756 15.9862 39.3756 13.8141C39.3756 11.6421 38.5127 9.55905 36.9769 8.0232C35.441 6.48734 33.358 5.62451 31.1859 5.62451C29.0139 5.62451 26.9309 6.48734 25.395 8.0232L22.5 10.9182" stroke="#7868E6" stroke-width="5" stroke-linecap="round" stroke-linejoin="round"/>
</svg>
