<svg width="66" height="65" viewBox="0 0 66 65" fill="none" xmlns="http://www.w3.org/2000/svg">
<path d="M22.5 28.5C22.5 24.3579 25.8579 21 30 21H31C35.1421 21 38.5 24.3579 38.5 28.5V29.5C38.5 33.6421 35.1421 37 31 37H24.5C23.3954 37 22.5 36.1046 22.5 35V28.5Z" fill="#D5D0F7"/>
<path d="M43.8446 33.3176C45.8564 34.4516 45.8862 37.3382 43.8982 38.5135L33.6555 44.569C31.6675 45.7443 29.1528 44.3268 29.1289 42.0175L29.0061 30.1193C28.9822 27.81 31.4672 26.3409 33.479 27.4749L43.8446 33.3176Z" fill="#7868E6"/>
<path d="M50.3018 53.3296C52.2151 55.633 51.9155 59.0974 49.3263 60.6016C46.1084 62.4711 42.5814 63.7809 38.8952 64.4609C33.4242 65.47 27.7858 65.0578 22.5197 63.2638C17.2536 61.4698 12.5362 58.3541 8.81908 54.2148C5.10197 50.0756 2.50964 45.0514 1.29027 39.6234C0.070897 34.1954 0.265307 28.5452 1.85489 23.2139C3.44447 17.8825 6.376 13.0484 10.3688 9.17448C14.3616 5.30052 19.2821 2.51636 24.659 1.08857C28.2818 0.126569 32.0302 -0.197995 35.7385 0.115571C38.7223 0.367873 40.4748 3.37123 39.7305 6.27169C38.9862 9.17215 36.0123 10.8463 33.0179 10.8438C31.1432 10.8423 29.2687 11.0841 27.442 11.5692C23.8591 12.5206 20.5804 14.3758 17.9198 16.9572C15.2592 19.5386 13.3058 22.7597 12.2466 26.3122C11.1874 29.8648 11.0579 33.6297 11.8704 37.2466C12.6829 40.8636 14.4103 44.2114 16.8872 46.9695C19.364 49.7277 22.5075 51.8039 26.0165 52.9993C29.5255 54.1947 33.2827 54.4694 36.9283 53.7969C38.7869 53.4541 40.5848 52.871 42.2786 52.0678C44.9843 50.7848 48.3884 51.0262 50.3018 53.3296Z" fill="#7868E6"/>
<mask id="mask0_126_685" style="mask-type:alpha" maskUnits="userSpaceOnUse" x="29" y="27" width="17" height="18">
<path d="M43.8445 33.3176C45.8563 34.4516 45.8861 37.3382 43.8981 38.5135L33.6554 44.569C31.6675 45.7443 29.1527 44.3268 29.1289 42.0175L29.006 30.1193C28.9822 27.81 31.4671 26.3409 33.4789 27.4749L43.8445 33.3176Z" fill="#7868E6"/>
</mask>
<g mask="url(#mask0_126_685)">
<path opacity="0.5" d="M22.5 28.5C22.5 24.3579 25.8579 21 30 21H31C35.1421 21 38.5 24.3579 38.5 28.5V29.5C38.5 33.6421 35.1421 37 31 37H24.5C23.3954 37 22.5 36.1046 22.5 35V28.5Z" fill="#D5D0F7"/>
</g>
<mask id="mask1_126_685" style="mask-type:alpha" maskUnits="userSpaceOnUse" x="0" y="0" width="53" height="65">
<path d="M51.2283 52.5238C53.2441 54.7381 53.1019 58.2125 50.5835 59.8326C47.394 61.8844 43.8579 63.3699 40.1307 64.2081C34.6326 65.4445 28.9074 65.2301 23.5172 63.5858C18.127 61.9415 13.257 58.9239 9.38518 54.8291C5.51337 50.7344 2.77282 45.7032 1.43254 40.2295C0.0922598 34.7558 0.198314 29.0276 1.74029 23.6073C3.28227 18.1869 6.20717 13.2607 10.2279 9.31203C14.2486 5.36341 19.227 2.52813 24.6744 1.08449C28.3673 0.105816 32.1897 -0.210488 35.9663 0.135647C38.9483 0.408944 40.6796 3.42456 39.9149 6.31971C39.1502 9.21486 36.1646 10.868 33.1703 10.8445C31.2486 10.8294 29.3255 11.07 27.4523 11.5664C23.8225 12.5284 20.5051 14.4177 17.8259 17.0488C15.1467 19.68 13.1978 22.9626 12.1703 26.5744C11.1428 30.1862 11.0721 34.0031 11.9652 37.6505C12.8583 41.2979 14.6844 44.6504 17.2644 47.3789C19.8444 50.1074 23.0895 52.1182 26.6812 53.2138C30.2729 54.3095 34.0878 54.4524 37.7515 53.6285C39.6421 53.2033 41.4589 52.5283 43.1562 51.627C45.8009 50.2227 49.2125 50.3095 51.2283 52.5238Z" fill="#7868E6"/>
</mask>
<g mask="url(#mask1_126_685)">
<path opacity="0.5" d="M28 6.15567C41.2 -0.244333 40.8333 -4.84433 39 -6.34433C35 -9.94433 15.6667 2.15567 6.5 8.65567C8.16667 10.489 14.8 12.5557 28 6.15567Z" fill="#D5D0F7"/>
<path opacity="0.5" d="M29.5822 9.29493C44.9816 0.881249 44.5538 -5.16608 42.415 -7.13804C37.7485 -11.8707 15.194 4.03638 4.5 12.5815C6.44436 14.9917 14.1829 17.7086 29.5822 9.29493Z" fill="#D5D0F7"/>
<path opacity="0.5" d="M30.1098 11.9768C47.2789 3.48415 47.0809 -3.13045 44.8358 -5.37617C39.9564 -10.7452 14.6505 5.60255 2.60751 14.4475C4.62112 17.1626 12.9406 20.4695 30.1098 11.9768Z" fill="#D5D0F7"/>
<path opacity="0.5" d="M35.4449 12.3184C58.7413 -0.485056 58.0942 -9.68751 54.8586 -12.6883C47.7991 -19.8902 13.6781 4.31623 -2.5 17.3197C0.441466 20.9873 12.1485 25.1218 35.4449 12.3184Z" fill="#D5D0F7"/>
</g>
</svg>
