<svg width="45" height="45" viewBox="0 0 45 45" fill="none" xmlns="http://www.w3.org/2000/svg">
<path d="M32.3438 22.5C33.4626 22.5 34.5357 22.9445 35.3269 23.7356C36.118 24.5268 36.5625 25.5999 36.5625 26.7188V28.125C36.5625 33.6684 31.3313 39.375 22.5 39.375C13.6687 39.375 8.4375 33.6684 8.4375 28.125V26.7188C8.4375 25.5999 8.88197 24.5268 9.67314 23.7356C10.4643 22.9445 11.5374 22.5 12.6562 22.5H32.3438ZM22.5 4.21875C24.5513 4.21875 26.5186 5.03362 27.969 6.4841C29.4195 7.93457 30.2344 9.90184 30.2344 11.9531C30.2344 14.0044 29.4195 15.9717 27.969 17.4222C26.5186 18.8726 24.5513 19.6875 22.5 19.6875C20.4487 19.6875 18.4814 18.8726 17.031 17.4222C15.5805 15.9717 14.7656 14.0044 14.7656 11.9531C14.7656 9.90184 15.5805 7.93457 17.031 6.4841C18.4814 5.03362 20.4487 4.21875 22.5 4.21875Z" fill="#7868E6"/>
</svg>
